# xmcd
#
# Track frame offsets: 
#        150
#        15440
#        32668
#        34147
#        51054
#        66585
#        83455
#        101209
#        118800
#        133391
#        157090
#        173912
#        194038
#        211455
#        225591
#        240850
#        259914
#
# Disc length: 3769 seconds
#
# Revision: 0
# Processed by: cddbd v1.5.2PL0 Copyright (c) Steve Scherf et al.
# Submitted via: ExactAudioCopyFreeDBPlugin 1.0
#
DISCID=f10eb711
DTITLE=Delgres - Mo Jodi
DYEAR=2018
DGENRE=Blues
TTITLE0=Respecé nou
TTITLE1=Mo jodi
TTITLE2=The promise
TTITLE3=Mr Président
TTITLE4=Vivre sur la route
TTITLE5=Sere mwen pli fo
TTITLE6=Can't let you go
TTITLE7=Ti manmzel
TTITLE8=Anko
TTITLE9=Ramene mwen
TTITLE10=Chak jou bon die fe
TTITLE11=Pardone mwen
TTITLE12=Toujou eve mwen
TTITLE13=Vivre sur la route
TTITLE14=Se kon sa
TTITLE15=Lanme la
TTITLE16=Ki Jan
EXTD=
EXTT0=
EXTT1=
EXTT2=
EXTT3=
EXTT4=
EXTT5=
EXTT6=
EXTT7=
EXTT8=
EXTT9=
EXTT10=
EXTT11=
EXTT12=
EXTT13=
EXTT14=
EXTT15=
EXTT16=
PLAYORDER=
